<svg xmlns="http://www.w3.org/2000/svg" width="1200" height="800" viewBox="0 0 1200 800">
<defs><linearGradient id="bg" x1="0" y1="0" x2="1" y2="1"><stop stop-color="#050913"/><stop offset="1" stop-color="#0a1224"/></linearGradient><filter id="g"><feGaussianBlur stdDeviation="7" result="b"/><feMerge><feMergeNode in="b"/><feMergeNode in="SourceGraphic"/></feMerge></filter></defs>
<rect width="1200" height="800" fill="url(#bg)"/><rect x="24" y="24" width="1152" height="752" rx="28" fill="#09111f" stroke="#243b67" stroke-width="2"/>
<text x="70" y="88" fill="#fff" font-family="Segoe UI" font-size="48" font-weight="700">MIBU</text><text x="72" y="116" fill="#d58a34" font-family="Segoe UI" font-size="15" letter-spacing="2">BY THETECHGUY TOOL</text>
<text x="70" y="177" fill="#fff" font-family="Segoe UI" font-size="30" font-weight="700">Mi Bootloader Unlock Helper</text><text x="70" y="211" fill="#9fb1cf" font-family="Segoe UI" font-size="17">Guided device check, APK install, two-token handoff, phone waiting and Mi Unlock verification.</text>
<rect x="70" y="255" width="1060" height="110" rx="20" fill="#0d1729" stroke="#28456f"/><text x="100" y="298" fill="#fff" font-family="Segoe UI" font-size="20" font-weight="700">STATUS</text><text x="100" y="332" fill="#8fd0ff" font-family="Consolas" font-size="17">Device: Waiting   ADB: Not authorized   APK: Not installed   Tokens: Not imported   Verify: Not started</text>
<rect x="70" y="390" width="1060" height="150" rx="20" fill="#0b1425" stroke="#1c2e4d"/><text x="100" y="432" fill="#fff" font-family="Segoe UI" font-size="20" font-weight="700">WORKFLOW</text>
<g font-family="Segoe UI" font-size="17" fill="#dce6f7"><text x="100" y="472">1. Connect and authorize the phone.</text><text x="100" y="504">2. Install and open MIBU.</text><text x="520" y="472">3. Import Firefox + Chrome tokens.</text><text x="520" y="504">4. Continue on phone, then verify in fastboot.</text></g>
<text x="70" y="586" fill="#9fb1cf" font-family="Segoe UI" font-size="15">Click a step below. The orange outline follows the active step.</text>
<g font-family="Segoe UI" font-size="18" font-weight="700" text-anchor="middle"><rect x="300" y="668" width="205" height="84" rx="18" fill="#101a2d" stroke="#3978c9" stroke-width="2"/><text x="402" y="717" fill="#fff">DEVICE CHECK</text><rect x="522" y="668" width="205" height="84" rx="18" fill="#101a2d" stroke="#3978c9" stroke-width="2"/><text x="624" y="717" fill="#fff">INSTALL APK</text><rect x="744" y="668" width="235" height="84" rx="18" fill="#101a2d" stroke="#ff7a2b" stroke-width="3" filter="url(#g)"/><text x="861" y="708" fill="#fff">LOGIN &amp;</text><text x="861" y="733" fill="#fff">GET TOKENS</text><rect x="996" y="668" width="170" height="84" rx="18" fill="#101a2d" stroke="#3978c9" stroke-width="2"/><text x="1081" y="717" fill="#fff">PHONE GUIDE</text></g>
</svg>