<svg xmlns="http://www.w3.org/2000/svg" width="512" height="512" viewBox="0 0 108 108">
  <path fill="#050913" d="M0,0 L108,0 L108,108 L0,108 Z"/>
  <path fill="#101A2F" d="M54,8 C28,8 8,28 8,54 C8,80 28,100 54,100 C80,100 100,80 100,54 C100,28 80,8 54,8 Z"/>
  <path fill="none" stroke="#FF7A2B" stroke-width="4" d="M54,12 C30,12 12,30 12,54 C12,78 30,96 54,96 C78,96 96,78 96,54 C96,30 78,12 54,12 Z"/>
  <path fill="none" stroke="#53A8FF" stroke-width="3" d="M31,43 C37,26 58,20 70,35 C78,45 77,61 70,72 C62,85 40,84 32,70 C27,62 27,52 31,43 Z"/>
  <path fill="#FFFFFF" d="M36,49 L50,49 L50,56 L36,56 Z M58,49 L72,49 L72,56 L58,56 Z"/>
  <path fill="#FF7A2B" d="M20,76 L38,76 L38,92 L20,92 Z"/>
  <path fill="#53A8FF" d="M48,77 L62,77 L62,91 L48,91 Z M66,77 L80,77 L80,91 L66,91 Z"/>
</svg>